<svg width="1067" height="790" viewBox="0 0 1067 790" fill="none" xmlns="http://www.w3.org/2000/svg">
<path opacity="0.1" d="M968.473 769.473C968.473 776.621 947.198 783.319 910.074 789.075H207.875C176.633 789.152 145.93 779.651 118.889 761.54L118.473 761.268C129.142 756.768 148.4 752.571 174.611 748.783L175.787 748.615C187.541 746.951 200.678 745.371 215.036 743.874C215.397 743.874 215.768 743.811 216.13 743.759C227.522 742.587 239.641 741.488 252.486 740.463C252.893 740.463 253.29 740.379 253.697 740.358C258.652 739.946 263.709 739.556 268.869 739.186L270.858 739.039C308.425 736.339 351.128 734.183 397.439 732.76H397.493C403.979 732.551 410.534 732.366 417.158 732.205C424.524 732.003 431.98 731.825 439.527 731.672C445.287 731.525 451.118 731.42 456.968 731.316H457.104C483.496 730.855 510.765 730.625 538.649 730.625C607.599 730.625 672.771 732.08 730.519 734.696H730.681C739.56 735.094 748.276 735.533 756.775 735.983L764.008 736.381C773.598 736.911 782.941 737.48 792.037 738.087C898.998 745.13 968.473 756.569 968.473 769.473Z" fill="#6C63FF"/>
<g opacity="0.2">
<path opacity="0.2" d="M621.071 725.129C621.042 726.286 620.93 727.439 620.736 728.574C614.434 727.386 608.097 726.313 601.723 725.354C601.723 725.053 601.723 724.742 601.723 724.431C601.782 721.212 602.563 718.07 603.986 715.328C605.851 711.829 608.685 709.639 611.809 709.757C614.932 709.876 617.639 712.269 619.314 715.887C620.581 718.728 621.187 721.918 621.071 725.129Z" fill="#3F3D56"/>
<path opacity="0.2" d="M621.594 706.786C621.816 698.485 617.66 691.593 612.312 691.393C606.965 691.193 602.45 697.76 602.229 706.061C602.007 714.362 606.163 721.254 611.511 721.455C616.859 721.655 621.373 715.088 621.594 706.786Z" fill="#3F3D56"/>
<path opacity="0.2" d="M622.087 688.409C622.308 680.107 618.152 673.215 612.804 673.015C607.457 672.815 602.942 679.382 602.721 687.683C602.5 695.984 606.655 702.876 612.003 703.077C617.351 703.277 621.865 696.71 622.087 688.409Z" fill="#3F3D56"/>
<path opacity="0.2" d="M622.571 670.032C622.792 661.73 618.636 654.838 613.289 654.638C607.941 654.438 603.427 661.005 603.205 669.306C602.984 677.607 607.14 684.499 612.487 684.7C617.835 684.9 622.35 678.333 622.571 670.032Z" fill="#3F3D56"/>
<path opacity="0.2" d="M623.055 651.655C623.277 643.353 619.121 636.461 613.773 636.261C608.425 636.061 603.911 642.628 603.69 650.929C603.468 659.23 607.624 666.122 612.972 666.323C618.319 666.523 622.834 659.956 623.055 651.655Z" fill="#3F3D56"/>
<path opacity="0.2" d="M580.421 524.145C579.146 522.098 577.996 519.946 576.98 517.705L602.566 513.701L575.025 512.917C572.567 506.006 571.324 498.572 571.372 491.071C571.421 483.571 572.759 476.161 575.305 469.294L611.629 493.392L578.356 462.435C581.713 455.999 586.153 450.452 591.399 446.142C596.645 441.831 602.584 438.849 608.845 437.382C615.107 435.915 621.556 435.995 627.791 437.615C634.026 439.236 639.911 442.364 645.081 446.803C650.25 451.241 654.592 456.896 657.835 463.414C661.078 469.931 663.152 477.172 663.929 484.682C664.706 492.193 664.168 499.813 662.35 507.067C660.531 514.32 657.47 521.051 653.359 526.839C655.342 530.023 657.027 533.453 658.384 537.069L624.803 556.175L660.412 543.477C662.654 552.249 663.015 561.546 661.463 570.526C659.911 579.506 656.493 587.884 651.521 594.904C656.691 603.22 659.782 613.093 660.442 623.394C661.102 633.695 659.303 644.008 655.252 653.154C651.2 662.3 645.059 669.91 637.532 675.113C630.004 680.317 621.393 682.904 612.684 682.578C603.974 682.253 595.518 679.028 588.282 673.273C581.046 667.517 575.322 659.464 571.764 650.033C568.207 640.603 566.96 630.176 568.165 619.944C569.371 609.713 572.981 600.09 578.583 592.177C572.406 582.239 569.227 570.128 569.555 557.789C569.884 545.451 573.701 533.602 580.394 524.145H580.421Z" fill="#6C63FF"/>
<path opacity="0.1" d="M662.385 561.263C662.068 573.609 658.239 585.464 651.521 594.904C656.691 603.22 659.782 613.093 660.442 623.394C661.102 633.695 659.303 644.008 655.252 653.154C651.2 662.3 645.059 669.91 637.532 675.113C630.004 680.317 621.393 682.904 612.684 682.578C603.974 682.253 595.518 679.028 588.282 673.273C581.046 667.517 575.322 659.464 571.764 650.033C568.207 640.603 566.96 630.176 568.165 619.944C569.371 609.713 572.981 600.091 578.583 592.177C572.634 582.592 662.548 555.091 662.385 561.263Z" fill="black"/>
</g>
<g opacity="0.2">
<path opacity="0.2" d="M483.454 725.129C483.425 726.286 483.313 727.439 483.119 728.574C476.817 727.386 470.479 726.313 464.105 725.354C464.105 725.053 464.105 724.742 464.105 724.431C464.164 721.212 464.946 718.07 466.369 715.328C468.234 711.829 471.068 709.639 474.191 709.757C477.315 709.876 480.022 712.269 481.697 715.887C482.964 718.728 483.57 721.918 483.454 725.129Z" fill="#3F3D56"/>
<path opacity="0.2" d="M483.965 706.79C484.187 698.489 480.031 691.597 474.683 691.397C469.336 691.196 464.821 697.764 464.6 706.065C464.379 714.366 468.534 721.258 473.882 721.458C479.23 721.659 483.744 715.092 483.965 706.79Z" fill="#3F3D56"/>
<path opacity="0.2" d="M484.458 688.413C484.679 680.112 480.523 673.22 475.175 673.02C469.828 672.819 465.313 679.387 465.092 687.688C464.871 695.989 469.027 702.881 474.374 703.082C479.722 703.282 484.236 696.715 484.458 688.413Z" fill="#3F3D56"/>
<path opacity="0.2" d="M484.946 670.037C485.167 661.735 481.011 654.843 475.664 654.643C470.316 654.443 465.802 661.01 465.58 669.311C465.359 677.612 469.515 684.504 474.862 684.705C480.21 684.905 484.725 678.338 484.946 670.037Z" fill="#3F3D56"/>
<path opacity="0.2" d="M485.43 651.66C485.652 643.358 481.496 636.466 476.148 636.266C470.8 636.066 466.286 642.633 466.065 650.934C465.843 659.235 469.999 666.127 475.347 666.328C480.694 666.528 485.209 659.961 485.43 651.66Z" fill="#3F3D56"/>
<path opacity="0.2" d="M442.804 524.145C441.529 522.098 440.379 519.946 439.363 517.705L464.949 513.701L437.407 512.917C434.95 506.006 433.707 498.572 433.755 491.071C433.803 483.571 435.142 476.161 437.688 469.294L474.012 493.392L440.739 462.435C444.096 455.999 448.536 450.452 453.782 446.142C459.027 441.831 464.967 438.849 471.228 437.382C477.49 435.915 483.939 435.995 490.174 437.615C496.408 439.236 502.294 442.364 507.463 446.803C512.633 451.241 516.974 456.896 520.217 463.414C523.461 469.931 525.535 477.172 526.312 484.682C527.089 492.193 526.551 499.813 524.732 507.067C522.914 514.32 519.853 521.051 515.741 526.839C517.725 530.023 519.409 533.453 520.766 537.069L487.186 556.175L522.794 543.477C525.037 552.249 525.398 561.546 523.846 570.526C522.293 579.506 518.876 587.884 513.904 594.904C519.073 603.22 522.165 613.093 522.825 623.394C523.485 633.695 521.686 644.008 517.634 653.154C513.583 662.3 507.442 669.91 499.915 675.114C492.387 680.317 483.776 682.904 475.067 682.578C466.357 682.253 457.901 679.028 450.665 673.273C443.428 667.517 437.704 659.464 434.147 650.033C430.59 640.603 429.342 630.176 430.548 619.944C431.754 609.713 435.364 600.091 440.966 592.177C434.789 582.239 431.61 570.128 431.938 557.789C432.266 545.451 436.084 533.602 442.776 524.145H442.804Z" fill="black"/>
<path opacity="0.1" d="M524.768 561.263C524.451 573.609 520.622 585.464 513.904 594.904C519.073 603.22 522.165 613.093 522.825 623.394C523.485 633.695 521.686 644.008 517.634 653.154C513.583 662.3 507.442 669.91 499.915 675.113C492.387 680.317 483.776 682.904 475.067 682.578C466.357 682.253 457.901 679.028 450.665 673.273C443.428 667.517 437.704 659.464 434.147 650.033C430.59 640.603 429.342 630.176 430.548 619.944C431.754 609.713 435.364 600.091 440.966 592.177C435.017 582.592 524.931 555.091 524.768 561.263Z" fill="black"/>
</g>
<g opacity="0.2">
<path opacity="0.2" d="M859.371 736.872C859.302 739.065 859.081 741.248 858.71 743.398C846.578 741.101 834.358 739.047 822.051 737.237C822.051 736.657 822.051 736.067 822.051 735.466C822.166 729.267 823.672 723.216 826.415 717.937C830.036 711.207 835.469 706.988 841.471 707.203C847.474 707.418 852.698 712.044 855.958 719.011C858.415 724.498 859.594 730.664 859.371 736.872Z" fill="#3F3D56"/>
<path opacity="0.2" d="M860.354 701.532C860.78 685.545 852.776 672.273 842.475 671.887C832.175 671.501 823.479 684.148 823.053 700.134C822.627 716.121 830.631 729.393 840.932 729.779C851.232 730.165 859.928 717.518 860.354 701.532Z" fill="#3F3D56"/>
<path opacity="0.2" d="M861.296 666.152C861.722 650.165 853.717 636.893 843.416 636.507C833.116 636.121 824.42 648.768 823.994 664.754C823.568 680.741 831.573 694.013 841.873 694.399C852.174 694.785 860.87 682.138 861.296 666.152Z" fill="#3F3D56"/>
<path opacity="0.2" d="M862.249 630.772C862.675 614.785 854.67 601.513 844.37 601.127C834.069 600.741 825.373 613.388 824.947 629.374C824.521 645.361 832.526 658.633 842.826 659.019C853.127 659.405 861.823 646.758 862.249 630.772Z" fill="#3F3D56"/>
<path opacity="0.2" d="M862.127 593.782C862.532 577.788 854.505 564.525 844.2 564.158C833.894 563.792 825.212 576.46 824.807 592.455C824.402 608.449 832.429 621.712 842.734 622.079C853.04 622.445 861.722 609.776 862.127 593.782Z" fill="#3F3D56"/>
<path opacity="0.2" d="M781.1 349.953C778.657 346.013 776.446 341.878 774.482 337.577L823.735 329.87L770.724 328.357C765.989 315.052 763.594 300.741 763.684 286.301C763.774 271.861 766.349 257.594 771.249 244.374L841.191 290.755L777.144 231.16C783.619 218.799 792.173 208.151 802.272 199.881C812.371 191.611 823.799 185.895 835.842 183.091C847.886 180.286 860.288 180.452 872.275 183.579C884.262 186.705 895.578 192.726 905.516 201.264C915.455 209.803 923.804 220.677 930.043 233.208C936.281 245.74 940.276 259.661 941.778 274.103C943.28 288.545 942.257 303.199 938.772 317.152C935.288 331.105 929.417 344.057 921.525 355.202C925.34 361.336 928.585 367.94 931.204 374.899L866.55 411.706L935.097 387.233C939.417 404.1 940.121 421.979 937.144 439.25C934.167 456.522 927.604 472.64 918.049 486.147C928 502.156 933.95 521.163 935.218 540.993C936.487 560.823 933.024 580.676 925.224 598.282C917.424 615.888 905.602 630.536 891.111 640.553C876.62 650.569 860.044 655.548 843.278 654.921C826.512 654.295 810.234 648.087 796.303 637.009C782.373 625.93 771.354 610.428 764.505 592.274C757.656 574.121 755.254 554.048 757.574 534.352C759.894 514.657 766.842 496.132 777.623 480.898C765.739 461.766 759.622 438.455 760.252 414.707C760.883 390.959 768.225 368.15 781.1 349.943V349.953Z" fill="black"/>
<path opacity="0.1" d="M938.908 421.398C938.314 445.152 930.977 467.972 918.084 486.168C928.035 502.177 933.985 521.184 935.253 541.014C936.522 560.844 933.059 580.697 925.259 598.303C917.459 615.909 905.638 630.557 891.146 640.574C876.655 650.59 860.079 655.569 843.313 654.942C826.547 654.316 810.269 648.108 796.339 637.03C782.408 625.951 771.389 610.449 764.54 592.295C757.691 574.142 755.289 554.069 757.609 534.374C759.929 514.678 766.877 496.153 777.659 480.919C766.124 462.445 939.225 409.516 938.908 421.398Z" fill="black"/>
</g>
<path d="M148.473 738.976L157.933 738.944H171.27L188.134 412.49L355.139 80.3937L347.88 71.1088V47.5957L167.266 404.795L148.473 738.976Z" fill="#EE860C"/>
<path opacity="0.1" d="M158.473 738.976H170.83L187.734 412.441L355.139 80.2628L347.862 70.9756L175.187 407.464L158.473 738.976Z" fill="#D6790B"/>
<path d="M120.137 740.509L554.287 780.693L554.658 780.726L974.82 749.472L975.137 749.45V727.99L512.17 717.714L125.918 717.266H123.095L122.788 719.673L120.137 740.509Z" fill="#EE860C"/>
<path opacity="0.1" d="M120.137 740.509L554.287 780.693L554.658 780.726L974.82 749.472L975.137 749.056V728.439H974.766L554.287 745.423L125.918 717.266H125.855L125.095 717.867L122.788 719.673L120.137 740.509Z" fill="black"/>
<path opacity="0.1" d="M120.137 742.272L555.137 780.725V746.974L125.105 720.605L122.793 722.333L120.137 742.272Z" fill="black"/>
<path d="M348.473 70.4093L539.711 314.292L533.799 743.282L550.044 745.613L550.315 745.656H566.56L568.503 332.712L926.6 474.835L932.638 727.89L945.71 729.63L950.139 730.221L939.888 457.285L565.547 301.134L360.288 47.5957H348.473V70.4093Z" fill="#EE860C"/>
<path opacity="0.1" d="M566.805 324.815L568.283 332.729L927.628 475.203L933.687 728.881L946.805 730.625L936.518 469.927L566.805 324.815Z" fill="black"/>
<path opacity="0.1" d="M348.473 70.4107L540.329 314.308L534.398 743.325L550.695 745.656L555.139 300.269L348.473 47.5957V70.4107Z" fill="black"/>
<path d="M568.473 496.573L699.711 527.607L699.756 527.618L929.616 581.996L940.139 576.93L940.103 576.04L939.417 558.414L568.608 468.436L568.473 496.573Z" fill="#EE860C"/>
<path opacity="0.1" d="M700.137 528.556L929.63 581.996L940.137 577.017L940.101 576.143L700.137 528.556Z" fill="black"/>
<path d="M708.473 388.275L712.017 620.061L713.848 738.975L729.984 738.333L740.139 737.925L736.983 391.629L729.984 388.865L728.45 388.275H708.473Z" fill="#EE860C"/>
<path opacity="0.1" d="M708.473 388.275V388.329L711.921 620.079L713.777 738.975L730.139 738.333V388.275H708.473Z" fill="black"/>
<path d="M454.549 447.647C455.478 448.238 456.365 448.915 457.202 449.669C458.193 450.686 459.083 451.831 459.855 453.081C463.649 458.836 467.15 465.525 466.779 472.783C466.787 473.84 466.617 474.887 466.278 475.866C465.94 476.845 465.44 477.735 464.807 478.487C463.242 480.053 460.996 480.125 458.944 480.125C456.716 480.125 454.373 480.125 452.445 478.777C450.517 477.429 448.908 474.806 446.626 474.868C446.304 474.93 445.976 474.93 445.654 474.868C444.867 474.567 444.708 473.354 444.195 472.586C443.31 471.207 441.445 471.549 440.056 472.151C438.668 472.752 437.129 473.654 435.759 472.96C434.963 472.467 434.313 471.705 433.893 470.772C430.612 464.55 429.914 457.073 429.295 449.845C428.915 445.449 426.014 430.454 434.017 433.866C437.554 435.359 440.861 438.345 444.08 440.533L454.549 447.647Z" fill="#3F3D56"/>
<path d="M446.766 449.469C447.482 450.118 448.349 450.447 449.23 450.402C450.11 450.358 450.954 449.943 451.626 449.223C452.944 447.72 453.784 445.664 453.99 443.438C454.875 443.092 455.327 444.555 455.893 445.448C456.885 446.967 458.903 446.945 459.806 448.564C460.435 449.681 460.293 451.233 460.736 452.495C461.311 454.126 462.736 454.975 463.71 456.293C464.63 457.733 465.294 459.405 465.658 461.196L467.11 466.691C467.804 468.976 468.251 471.369 468.437 473.805C468.529 475.023 468.427 476.252 468.139 477.419C467.85 478.587 467.38 479.671 466.755 480.607C464.808 483.254 461.612 483.533 458.788 483.455C457.845 483.48 456.903 483.341 455.991 483.042C453.485 482.059 451.883 478.876 451.219 475.67C450.555 472.465 450.626 469.103 450.236 465.82C449.816 462.594 449.072 459.449 448.023 456.46C447.244 454.137 445.102 450.675 445.137 448.207C445.775 448.207 446.235 448.944 446.766 449.469Z" fill="#3F3D56"/>
<path d="M449.141 438.938C448.718 437.405 448.472 435.81 448.409 434.197C448.409 430.956 449.648 427.91 450.896 425.016L440.559 426.69C439.311 426.895 437.918 427.197 437.212 428.44C436.945 429.055 436.805 429.739 436.805 430.432C436.805 431.126 436.945 431.81 437.212 432.425C437.731 433.658 438.143 434.95 438.442 436.281C438.466 437.447 438.578 438.607 438.777 439.749C439.099 440.587 439.55 441.345 440.106 441.984C443.064 445.895 445.279 450.507 447.486 455.076C447.423 454.946 453.717 449.124 453.464 447.223C453.319 446.143 451.501 444.847 450.923 443.81C450.123 442.305 449.522 440.662 449.141 438.938Z" fill="#BE6F72"/>
<path d="M538.47 396.625V407.238L385.461 442.685L377.524 448.395H350.137V442.415L500.47 399.275L538.47 396.625Z" fill="#EE860C"/>
<path opacity="0.1" d="M538.47 408.315L385.461 442.835L377.524 448.395H350.137L501.585 410.907L538.47 408.315Z" fill="black"/>
<path d="M415.233 697.348C413.554 694.887 411.236 693.187 408.657 692.524C406.078 691.86 403.389 692.273 401.028 693.694C400.523 693.982 400.077 694.403 399.724 694.926C398.83 696.44 399.402 698.526 399.483 700.397C399.688 704.959 396.686 708.667 393.988 711.856C392.541 713.564 391.067 715.391 390.415 717.715C389.763 720.04 390.245 722.991 391.996 724.202C392.76 724.665 393.592 724.944 394.444 725.023C397.3 725.698 400.228 725.796 403.11 725.315C405.96 724.656 408.756 722.699 409.989 719.521C410.227 718.659 410.62 717.872 411.141 717.218C412.714 715.715 415.126 717.478 416.912 716.407C418.387 715.521 418.449 714.126 418.467 712.288C418.521 707.207 417.895 701.456 415.233 697.348Z" fill="#6C63FF"/>
<path d="M437.093 696.603C438.15 700.057 438.297 703.821 438.434 707.51C438.512 709.643 438.563 711.924 437.634 713.726C436.705 715.528 434.891 716.477 433.153 716.925C429.567 717.842 425.412 716.978 423.099 713.449C421.327 710.751 420.957 707.052 421.284 703.554C421.559 700.686 422.144 697.328 420.484 695.291C420.054 694.747 419.495 694.364 419.099 693.777C418.239 692.476 418.377 690.515 418.841 688.915C419.446 687.386 419.9 685.771 420.192 684.107C420.261 683.318 431.837 684.661 432.904 685.311C434.357 686.196 434.134 687.678 434.572 689.47C435.183 691.965 436.353 694.214 437.093 696.603Z" fill="#6C63FF"/>
<path d="M439.234 541.908C441.638 543.751 442.567 547.373 442.94 550.737C443.969 559.954 442.166 569.268 442.029 578.571C441.902 591.605 445.089 604.875 442.366 617.499C440.736 625.045 442.12 633.67 440.591 641.291C440.136 643.555 439.298 645.69 438.861 647.954C437.95 652.859 438.906 657.99 440.19 662.787C440.6 664.08 440.86 665.433 440.964 666.808C440.902 668.926 440.449 671.002 439.635 672.889L434.172 688.186C433.562 689.9 431.158 690.18 429.619 690.407C426.724 690.816 423.491 691.107 421.188 688.984C418.884 686.86 418.329 683.302 417.974 679.982C417.293 673.608 416.988 667.185 417.063 660.761C417.163 659.084 417.037 657.399 416.69 655.769C416.189 653.926 415.087 652.33 414.787 650.379C414.404 647.857 415.488 645.377 415.889 642.833C416.163 640.509 416.133 638.149 415.797 635.837C415.442 632.387 415.033 628.937 414.568 625.509C413.913 620.712 414.851 615.979 415.479 611.171C416.071 606.654 415.315 602.051 414.568 597.566C414.633 601.206 414.249 604.838 413.43 608.347C412.948 610.061 412.256 611.699 411.837 613.446C409.97 621.283 413.949 629.508 413.385 637.626C413.121 641.421 411.864 645.172 412.219 648.913C412.465 651.651 413.539 654.163 414.277 656.772C415.014 659.381 415.397 662.367 414.277 664.803C411.318 671.422 413.53 680.424 416.18 687.216C416.718 688.42 417.186 689.666 417.582 690.946C418.365 694.007 417.71 697.295 417.919 700.486C417.156 700.634 416.375 700.574 415.635 700.31C414.895 700.047 414.216 699.587 413.649 698.966C413.248 698.47 412.92 697.888 412.529 697.371C411.435 696.136 410.14 695.179 408.723 694.557C407.891 694.006 406.943 693.748 405.991 693.813C404.991 694.144 404.09 694.806 403.396 695.721C402.496 696.659 401.54 697.52 400.537 698.298C400.11 698.687 399.611 698.949 399.08 699.063C398.814 699.112 398.541 699.06 398.301 698.915C398.061 698.77 397.865 698.539 397.742 698.255C397.685 698.075 397.651 697.886 397.642 697.694C397.304 694.439 397.124 691.163 397.105 687.884C397.105 682.246 391.405 678.365 390.685 672.792C390.112 668.296 391.177 663.714 390.822 659.187C390.649 656.858 390.103 654.573 390.139 652.244C390.139 650.735 390.43 649.258 390.531 647.76C390.614 646.096 390.593 644.428 390.467 642.768L390.185 637.561C389.911 632.419 389.611 627.169 387.899 622.469C385.869 616.981 384.668 611.114 384.348 605.134C384.166 601.361 384.285 597.588 383.92 593.804C383.593 590.387 382.864 586.991 383.074 583.563C383.247 580.911 383.984 578.345 384.157 575.693C384.512 570.594 382.873 565.635 381.589 560.752C380.306 555.868 379.359 550.456 381.043 545.745C381.284 544.972 381.685 544.283 382.209 543.74C382.854 543.234 383.589 542.91 384.357 542.792C399.98 538.906 415.992 537.697 431.904 539.202C434.499 539.376 437.016 540.305 439.234 541.908Z" fill="#3F3D56"/>
<path d="M388.473 426.685C396.757 426.685 403.473 419.208 403.473 409.985C403.473 400.762 396.757 393.285 388.473 393.285C380.188 393.285 373.473 400.762 373.473 409.985C373.473 419.208 380.188 426.685 388.473 426.685Z" fill="#BE6F72"/>
<path d="M385.743 432.604C385.952 433.632 385.952 434.707 385.743 435.734C385.515 436.451 385.193 437.118 384.791 437.708C383.384 439.951 381.827 442.045 380.137 443.966C380.998 446.344 382.548 448.237 384.482 449.272C386.403 450.282 388.417 450.994 390.479 451.391C391.508 451.726 392.579 451.817 393.636 451.661C394.61 451.358 395.532 450.841 396.358 450.135L404.432 444.157C405.65 443.341 406.778 442.335 407.789 441.162C409.269 439.281 410.108 436.766 410.129 434.141C410.167 433.671 410.063 433.2 409.839 432.818C409.529 432.485 409.141 432.284 408.732 432.246C405.892 431.472 403.652 428.623 402.382 425.392C401.233 422.081 400.49 418.577 400.177 414.995L391.568 420.603C390.288 421.444 389.018 422.286 387.694 423.015C386.85 423.486 385.145 423.878 384.546 424.832C383.403 426.593 385.444 430.485 385.743 432.604Z" fill="#BE6F72"/>
<path d="M379.783 440.831C378.574 442.003 377.63 443.513 377.036 445.224C376.481 447.342 377.036 449.575 377.537 451.671C379.885 460.606 381.68 469.731 382.906 478.974C383.657 485.326 383.935 491.774 384.302 498.2C385.053 511.306 386.145 532.204 387.604 545.226C392.972 545.511 398.207 543.659 403.531 542.981C413.481 541.732 423.727 544.59 433.471 541.923C431.109 530.881 428.747 512.026 426.384 500.995C425.339 496.648 424.615 492.203 424.219 487.708C424.013 484.479 424.139 481.24 424.174 477.99C424.255 471.638 423.96 465.286 423.664 458.934C423.324 451.523 422.984 444.113 421.499 436.861C421.395 435.937 421.029 435.082 420.461 434.436C419.566 433.664 418.403 433.939 417.338 434.108C414.078 434.598 410.778 433.673 408.05 431.504C406.869 430.551 405.285 429.387 404.184 430.445C403.715 431.084 403.405 431.865 403.289 432.7C402.802 434.198 402.051 435.555 401.085 436.682C400.119 437.808 398.961 438.678 397.688 439.232C395.138 440.325 392.468 440.974 389.76 441.159C388.931 441.369 388.067 441.254 387.299 440.831C386.029 439.91 385.939 436.596 384.337 436.374C382.933 436.183 380.731 439.761 379.783 440.831Z" fill="#3F3D56"/>
<path d="M400.753 466.271C397.403 462.504 395.932 457.04 393.49 452.398C391.827 449.276 389.702 446.529 387.216 444.287C385.966 443.317 384.82 442.174 383.802 440.882C382.94 439.634 382.286 437.969 380.979 437.489C380.438 437.351 379.878 437.369 379.345 437.542C378.812 437.715 378.322 438.037 377.919 438.481C377.119 439.378 376.361 440.326 375.649 441.32C371.8 446.005 365.036 446.656 361.985 452.077C361.162 453.227 360.603 454.604 360.36 456.079C359.481 463.97 361.217 471.955 365.208 478.384C365.981 479.874 367.167 481.005 368.567 481.585C368.377 483.575 368.602 485.589 369.221 487.455C370.902 494.209 372.968 500.823 375.404 507.251C374.821 509.766 374.415 512.332 374.187 514.924C373.552 521.445 374.142 528.062 373.543 534.593C373.052 539.929 371.727 545.126 371.682 550.473C371.682 551.326 371.745 552.34 372.372 552.778C372.705 552.979 373.078 553.071 373.452 553.044L384.619 553.439C391.102 553.663 397.648 553.888 404.031 552.479C404.881 552.331 405.705 552.025 406.473 551.572C408.634 550.152 409.351 546.951 409.696 544.101C410.147 540.405 410.326 536.671 410.232 532.939C411.584 537.965 413.191 543.162 417.277 545.339C419.438 546.492 421.907 546.407 424.277 546.332C429.385 546.065 434.475 545.448 439.521 544.486C439.832 544.531 440.148 544.49 440.443 544.366C440.738 544.242 441.004 544.039 441.221 543.772C441.437 543.506 441.597 543.183 441.688 542.831C441.779 542.479 441.799 542.106 441.745 541.743L441.8 535.916C441.909 524.081 439.412 512.769 438.441 500.987C438.132 497.273 438.159 493.516 437.387 489.877C437.07 488.351 436.607 486.857 436.325 485.32C436.083 483.816 435.931 482.293 435.871 480.764L435.163 469.024C434.827 463.592 434.346 458.352 433.992 452.931C433.797 447.652 433.146 442.41 432.049 437.286C431.259 434.084 429.616 430.456 426.774 430.061C425.258 429.858 423.787 430.637 422.343 431.182C418.795 432.495 414.987 432.476 411.448 431.128C410.355 430.621 409.216 430.263 408.053 430.061C407.467 429.968 406.871 430.058 406.326 430.325C405.78 430.591 405.304 431.023 404.948 431.577C404.595 432.41 404.43 433.336 404.466 434.266C404.04 444.927 403.25 455.909 400.753 466.271Z" fill="#6C63FF"/>
<path d="M386.739 467.401C382.598 462.222 378.348 456.947 373.012 453.654C370.909 452.354 368.52 451.374 366.193 451.864C363.866 452.354 361.701 454.752 361.809 457.554C361.88 459.291 362.77 460.826 363.048 462.531C363.372 464.449 362.905 466.495 363.408 468.349C363.817 469.571 364.427 470.683 365.205 471.621L371.565 480.562C374.26 484.291 376.956 488.074 380.423 490.653C383.891 493.232 388.383 494.436 392.193 492.603C394.903 491.109 397.156 488.656 398.643 485.581C400.224 482.597 401.338 479.336 402.821 476.256C405.128 471.335 408.172 466.955 411.805 463.33C409.936 462.755 407.591 461.945 406.414 460.133C406.079 459.557 405.793 458.943 405.561 458.3L404.105 454.571C403.61 454.54 403.115 454.631 402.652 454.838C402.188 455.046 401.765 455.364 401.41 455.775C400.786 456.63 400.117 457.438 399.407 458.194C398.14 459.323 396.424 459.632 395.274 460.922C394.829 461.475 394.426 462.074 394.07 462.712C393.2 464.068 392.096 465.188 390.832 465.997C389.568 466.805 388.172 467.284 386.739 467.401Z" fill="#3F3D56"/>
<path d="M412.956 444.316C416.048 437.416 415.905 429.141 416.787 421.346C416.883 419.282 417.475 417.299 418.489 415.645C420.271 413.181 423.416 413.148 426.107 413.464C426.9 413.573 427.889 414.031 427.844 415.002C427.782 415.349 427.643 415.67 427.443 415.928C424.835 420.047 423.302 425.031 423.042 430.231C424.441 431.42 426.606 428.978 427.951 430.231C428.842 431.147 428.432 432.957 427.898 434.265C426.656 437.296 425.376 440.305 424.058 443.292C423.005 445.925 421.632 448.347 419.986 450.476C418.854 451.806 417.527 452.853 416.377 454.161C413.704 457.224 412.092 461.552 409.33 464.539C409.096 464.849 408.78 465.046 408.439 465.095C408.087 465.064 407.756 464.883 407.503 464.583C406.123 463.21 404.979 461.517 404.135 459.601C403.084 457.224 403.244 456.526 404.901 454.848C408.002 451.85 411.022 448.634 412.956 444.316Z" fill="#BE6F72"/>
<path d="M381.739 462.722C382.271 463.165 382.926 463.667 383.51 463.297C383.749 463.101 383.952 462.836 384.103 462.519C385.115 460.694 385.96 458.71 386.617 456.61C386.731 456.313 386.794 455.987 386.803 455.653C386.803 454.887 386.299 454.325 385.83 453.883C383.315 451.718 380.612 449.982 377.782 448.715C375.445 447.519 373.001 446.478 370.523 446.777C369.591 446.862 368.682 447.2 367.85 447.772C367.018 448.343 366.28 449.136 365.68 450.103C363.909 453.177 366.875 454.11 368.734 455.222C373.037 457.866 377.694 459.397 381.739 462.722Z" fill="#6C63FF"/>
<path opacity="0.1" d="M378.488 482.04C378.455 482.298 378.475 482.562 378.548 482.809C378.62 483.057 378.743 483.282 378.906 483.465C379.194 481.859 378.816 480.162 379.114 478.544C379.551 476.112 381.627 474.279 381.806 471.835C378.002 470.987 378.518 479.415 378.488 482.04Z" fill="black"/>
<path opacity="0.2" d="M538.47 396.625V407.307L501.262 409.985L500.137 399.293L538.47 396.625Z" fill="black"/>
<path d="M374.557 412.83C376.856 410.682 375.526 406.177 377.082 403.292C377.986 401.715 379.515 400.885 381.017 400.179C382.83 399.206 384.772 398.589 386.763 398.352C387.76 398.242 388.765 398.392 389.705 398.789C390.645 399.186 391.495 399.82 392.191 400.646C392.779 401.414 393.177 402.348 393.729 403.147C394.413 404.079 395.303 404.782 396.307 405.18C397.311 405.579 398.39 405.658 399.429 405.409C400.632 405.098 401.881 404.05 401.8 402.638C401.664 401.78 401.282 400.998 400.714 400.418L398.126 397.128C395.186 393.392 391.92 389.427 387.604 388.493C384.6 387.839 381.524 388.763 378.629 389.873C377.462 390.32 376.15 390.984 375.824 392.343C375.607 393.277 375.933 394.294 375.743 395.239C375.372 397.117 373.273 397.75 372.296 399.328C371.318 400.905 371.617 402.773 371.337 404.517C371.056 406.26 370.242 407.962 370.142 409.768C370.079 410.858 370.558 412.882 371.626 413.276C372.694 413.67 373.897 411.533 374.557 412.83Z" fill="#3F3D56"/>
<path d="M401.803 401.557C401.038 396.939 399.387 392.578 396.973 388.794C394.826 385.259 391.84 382.518 388.375 380.902C386.643 380.119 384.78 379.801 382.925 379.97C381.071 380.139 379.275 380.791 377.67 381.878C375.288 383.844 373.434 386.547 372.322 389.676C369.971 395.532 369.099 402.69 371.832 408.316C372.921 406.783 374.792 407.476 376.444 406.92C378.514 406.238 380.267 404.642 382.237 403.645C388.184 400.612 395.448 403.068 401.803 401.557Z" fill="#FED253"/>
<path opacity="0.1" d="M373.706 401.474C373.514 399.861 373.389 397.988 374.456 396.841C374.509 396.77 374.577 396.714 374.653 396.677C374.73 396.64 374.814 396.622 374.898 396.625C374.972 396.651 375.041 396.693 375.099 396.749C375.158 396.804 375.206 396.872 375.239 396.948C375.855 397.993 376.379 399.097 376.806 400.246C376.185 400.092 375.535 400.142 374.941 400.39C374.347 400.637 373.835 401.071 373.473 401.635" fill="black"/>
<path opacity="0.1" d="M393.955 396.071L393.586 391.671C393.526 391.309 393.551 390.934 393.657 390.587C393.812 390.297 394.051 390.086 394.328 389.995C394.605 389.904 394.9 389.939 395.156 390.094C395.662 390.43 396.078 390.93 396.358 391.536C397.212 393.111 397.921 394.792 398.473 396.551C396.819 396.169 395.118 396.194 393.473 396.625" fill="black"/>
<path opacity="0.1" d="M401.806 551.936V559.84L395.682 560.286H363.473V551.936H401.806Z" fill="black"/>
<path d="M401.803 551.091V560.285H363.061L260.137 407.196V399.965H281.713L401.803 551.091Z" fill="#EC850C"/>
<path opacity="0.1" d="M401.803 551.091V560.285H363.061L260.137 407.196V399.965H281.713L401.803 551.091Z" fill="black"/>
<path opacity="0.1" d="M401.803 551.091V560.285H363.061L260.137 407.196V399.965L363.618 551.091H401.803Z" fill="black"/>
<path d="M272.68 706.159C272.748 706.594 272.74 707.042 272.655 707.473C272.571 707.905 272.411 708.311 272.188 708.666C271.964 709.022 271.68 709.319 271.354 709.54C271.029 709.76 270.668 709.899 270.295 709.948C267.764 710.957 265.079 711.955 263.286 714.241C261.492 716.528 261.137 720.767 263.286 722.624C264.384 723.405 265.644 723.81 266.927 723.794C271.05 724.127 275.347 724.063 279.088 722.002C281.764 720.542 284.285 718.052 287.225 718.277C288.746 718.385 290.366 719.222 291.722 718.406C293.078 717.59 293.461 715.315 293.47 713.415C293.504 709.449 292.997 705.502 291.968 701.726C291.831 701.211 286.042 700.814 285.35 700.653L278.332 699.579C277.003 699.375 274.136 698.195 273.089 699.504C272.042 700.814 272.68 704.603 272.68 706.159Z" fill="#6C63FF"/>
<path d="M315.381 678.253C315.68 680.205 316.165 682.111 316.826 683.933C317.805 686.882 319.058 690.014 321.454 691.445C323.631 692.735 326.301 692.269 328.514 691.044C329.438 690.591 330.248 689.863 330.865 688.93C331.579 687.455 331.898 685.758 331.779 684.063C331.779 679.868 331.569 675.532 329.95 671.803C328.56 668.551 326.136 665.754 326.1 662.155L317.768 664.063C317.322 664.114 316.897 664.313 316.543 664.638C316.279 664.967 316.095 665.376 316.012 665.819C315.123 669.876 314.908 674.099 315.381 678.253Z" fill="#6C63FF"/>
<path d="M216.954 577.868C216.622 581.296 216.762 584.969 218.229 587.929C219.697 590.889 222.79 592.848 225.464 591.666C225.601 591.623 225.73 591.548 225.842 591.443C225.955 591.339 226.049 591.208 226.119 591.059C226.19 590.699 226.15 590.32 226.006 589.994C224.825 586.156 224.923 581.908 226.277 578.156C226.451 577.666 226.827 577.091 227.238 577.283C227.409 577.389 227.548 577.561 227.631 577.772C228.054 578.664 228.266 579.681 228.243 580.711C228.119 581.643 228.096 582.592 228.173 583.532C228.339 584.448 229.142 585.31 229.841 584.916C230.044 584.765 230.218 584.565 230.355 584.329C230.492 584.093 230.587 583.825 230.637 583.543C232.585 576.676 231.703 569.17 230.811 561.984C230.819 561.819 230.796 561.654 230.746 561.5C230.695 561.347 230.617 561.209 230.518 561.096C230.419 560.984 230.301 560.899 230.172 560.848C230.043 560.797 229.906 560.781 229.772 560.802C225.648 560.301 223.393 559.098 221.034 563.772C219.007 567.711 216.954 573.13 216.954 577.868Z" fill="#6C63FF"/>
<path d="M266.083 558.36C264.823 564.612 263.554 570.939 263.473 577.363C263.495 581.364 263.747 585.359 264.229 589.319L265.174 598.621C265.498 601.758 265.813 604.884 266.272 607.988C266.565 609.588 266.725 611.218 266.75 612.855C266.661 614.468 266.447 616.069 266.11 617.635C265.544 620.924 265.228 624.268 265.165 627.625C265.066 632.996 265.624 638.367 265.975 643.738C266.676 654.441 266.571 665.198 265.66 675.878C265.297 678.761 265.821 681.704 267.137 684.161C267.67 684.935 268.11 685.796 268.442 686.717C269.117 689.177 267.542 691.637 267.137 694.162C266.877 696.13 267.284 698.141 268.266 699.752C269.248 701.363 270.727 702.443 272.376 702.755C279.578 703.776 286.978 703.314 293.468 707.245C294.153 704.861 292.658 702.154 293.342 699.726C293.774 698.222 294.963 697.245 295.773 695.977C296.861 694.046 297.404 691.75 297.321 689.424C297.353 686.389 296.901 683.374 295.989 680.541C295.224 678.177 294.126 675.846 294.189 673.311C294.189 672.065 294.558 670.755 294.135 669.605C293.844 668.945 293.45 668.358 292.973 667.876C290.283 664.359 288.629 659.888 288.265 655.146C287.914 650.44 288.041 645.701 288.643 641.031C289.084 636.584 289.678 631.89 292.046 628.42C290.948 617.899 291.593 607.223 293.946 596.999C294.18 596.054 294.549 594.958 295.359 594.733C295.681 594.693 296.006 594.747 296.307 594.889C296.607 595.031 296.875 595.258 297.087 595.549C298.501 597.128 299.176 599.416 299.788 601.608C300.463 603.982 301.147 606.517 300.634 608.945C300.418 610.019 299.986 610.964 299.734 611.995C299.186 614.068 299.282 616.306 300.004 618.301C300.356 619.03 300.577 619.838 300.652 620.675C300.569 621.393 300.386 622.09 300.112 622.737C299.778 624.009 299.672 625.349 299.801 626.673C299.93 627.996 300.29 629.272 300.859 630.418C302.007 632.699 303.422 634.772 305.063 636.573C304.279 640.696 304.482 644.999 305.649 648.991C305.733 649.171 305.786 649.369 305.806 649.573C305.827 649.778 305.813 649.985 305.766 650.183C305.604 650.592 305.189 650.742 304.865 651.032C303.965 651.913 304.523 653.578 305.126 654.727C306.779 657.882 308.605 660.904 310.591 663.772C312.391 666.34 312.229 671.292 314.912 672.215C316.039 672.506 317.205 672.506 318.333 672.215C320.979 671.732 323.932 670.819 325.229 668.026C325.76 666.877 325.976 665.48 326.804 664.621C327.632 663.761 328.703 663.611 329.163 662.58C329.622 661.549 329.109 660.195 329.262 659.003C329.415 657.81 330.288 656.854 330.567 655.597C331.233 652.697 328.397 650.312 328.01 647.348C327.452 643.051 331.989 639.828 331.8 635.531C331.404 626.196 331.152 616.819 330.747 607.484C330.239 599.122 330.166 590.73 330.531 582.358C330.846 577.148 331.431 571.691 329.829 566.846C327.524 560.014 321.169 556.179 315.02 555.449C308.871 554.719 302.741 556.459 296.646 557.597C286.531 559.458 276.255 559.714 266.083 558.36Z" fill="#3F3D56"/>
<path d="M284.303 456.746C292.127 456.746 298.47 448.895 298.47 439.211C298.47 429.526 292.127 421.676 284.303 421.676C276.479 421.676 270.137 429.526 270.137 439.211C270.137 448.895 276.479 456.746 284.303 456.746Z" fill="#FBBEBE"/>
<path d="M279.341 459.859C278.862 461.3 278.056 462.52 277.03 463.358C276.003 464.197 274.805 464.614 273.591 464.556C273.08 467.285 274.304 470.037 275.704 472.186C278.612 476.556 282.369 479.844 286.589 481.713C290.808 483.583 295.337 483.964 299.709 482.819C301.411 482.426 303.025 481.557 304.438 480.272C306.344 478.217 307.623 475.356 308.049 472.198C308.454 469.061 308.569 465.874 308.392 462.702C308.442 462.076 308.303 461.449 308.005 460.951C307.652 460.598 307.217 460.414 306.772 460.427C303.795 460.086 300.687 459.938 298.072 458.051C295.456 456.163 293.598 451.898 294.857 448.396C294.655 448.941 289.512 449.203 288.834 449.317C286.712 449.703 284.59 450.135 282.476 450.636C281.461 450.708 280.457 450.953 279.491 451.364C278.214 452.217 278.69 451.796 278.989 453.342C279.438 455.708 280.099 457.402 279.341 459.859Z" fill="#FBBEBE"/>
<path d="M289.702 469.288C287.756 469.314 285.815 469.058 283.921 468.524C282.009 467.991 280.323 466.65 279.177 464.748C278.509 463.543 278.076 462.027 277.012 461.349C275.271 460.273 273.287 462.091 271.898 463.759C270.634 465.403 269.168 466.81 267.551 467.932C265.621 469.148 263.366 469.578 261.544 471.009C260.121 472.291 258.899 473.865 257.936 475.656L245.156 496.416C240.024 504.764 235.56 513.724 230.987 522.534C227.027 530.161 224.953 538.938 221.968 547.167C221.731 547.671 221.633 548.25 221.688 548.824C221.796 549.383 222.364 549.835 222.761 549.512C221.417 551.104 222.599 553.815 222.283 556.052C221.924 557.618 221.176 559.017 220.137 560.065C222.122 559.756 224.137 559.869 226.089 560.398C228.107 561.08 230.011 562.172 231.717 563.625C232.809 563.421 232.71 561.108 233.521 560.247C234.008 559.742 234.73 559.806 235.37 559.656C237.778 559.096 238.734 555.644 240.583 553.697C242.126 552.072 244.308 551.545 245.941 550.018C248.592 547.533 249.161 543.112 250.55 539.444C251.731 536.335 253.589 533.624 254.626 530.44C255.303 528.375 255.628 526.138 256.593 524.234C258.135 521.157 261.039 519.522 263.808 518.048C265.558 517.113 267.416 516.144 269.301 516.295C269.202 521.297 268.669 526.224 269.58 531.107C269.896 532.828 270.338 534.506 270.717 536.217C272.439 543.919 272.845 551.943 272.926 559.882C277.07 558.751 281.303 558.145 285.553 558.075C288.9 557.956 292.237 558.473 295.583 558.397C299.551 558.311 303.475 557.397 307.443 557.074C311.412 556.751 315.561 557.074 319.069 559.226C318.784 552.408 318.944 545.575 319.547 538.788L320.503 528.095C320.719 524.989 321.12 521.905 321.703 518.866C322.226 516.413 322.983 514.047 323.561 511.605C325.59 503 325.22 493.813 324.832 484.853C324.634 480.249 323.146 475.72 321.396 471.622C320.763 470.1 320.039 468.633 319.231 467.233C317.117 463.759 314.299 460.979 311.041 459.155C307.782 457.33 304.19 456.52 300.598 456.799C300.139 456.816 299.686 456.932 299.263 457.143C298.501 457.724 297.907 458.569 297.558 459.563C295.692 463.563 292.985 466.915 289.702 469.288Z" fill="#3F3D56"/>
<path d="M271.373 445.96C271.792 444.906 272.919 444.517 273.608 443.674C274.931 442.073 274.335 439.513 274.54 437.354C274.875 434.194 277.195 431.55 279.85 430.423C282.557 429.441 285.438 429.235 288.234 429.823C289.579 429.934 290.879 430.423 292.016 431.245C292.5 431.645 292.947 432.161 293.404 432.53C294.236 433.099 295.232 433.277 296.178 433.027C297.125 432.777 297.948 432.119 298.471 431.192C295.174 426.705 291.522 421.965 286.51 420.585C284.791 420.189 283.039 420.001 281.284 420.027C278.965 419.974 276.571 419.932 274.428 420.933C271.512 422.292 269.463 425.42 268.41 428.791C267.49 432.207 266.998 435.753 266.948 439.324C266.757 441.706 266.757 444.104 266.948 446.486C267.308 449.74 268.377 452.842 270.059 455.513C270.287 455.928 270.608 456.266 270.991 456.493C275.239 458.599 271.028 446.834 271.373 445.96Z" fill="#3F3D56"/>
<path d="M298.47 427.715C297.972 422.756 294.929 418.66 291.696 415.364C289.09 412.507 285.986 410.334 282.594 408.994C279.18 407.825 275.249 408.078 272.324 410.447C269.969 412.353 268.475 415.385 267.325 418.439C265.814 422.042 265.065 426.013 265.142 430.021C265.368 434.001 267.035 438.034 270.005 440.045C271.074 438.213 272.931 437.266 274.715 436.518C282.491 433.088 290.421 430.149 298.47 427.715Z" fill="#FED253"/>
<path opacity="0.1" d="M271.074 425.016C271.35 425.016 271.531 425.472 271.669 425.845C272.37 427.598 272.973 429.448 273.47 431.373C272.462 431.718 270.729 432.105 270.229 430.682C269.962 429.963 270.281 424.947 271.074 425.016Z" fill="black"/>
<path opacity="0.1" d="M290.722 423.284C290.452 423.514 290.138 423.043 290.138 422.703V418.814C290.131 418.706 290.158 418.598 290.217 418.503C290.263 418.456 290.32 418.417 290.384 418.39C290.447 418.362 290.517 418.346 290.587 418.343C291.497 418.253 292.25 418.944 292.834 419.606C293.72 420.678 294.491 421.822 295.137 423.023L290.385 422.893" fill="black"/>
<path d="M338.692 492.186C339.512 491.265 340.388 490.416 341.312 489.646C343.782 487.696 346.768 486.927 349.54 485.683C352.312 484.44 355.128 482.427 356.207 479.16C356.747 477.117 356.923 474.964 356.724 472.837C356.75 471.946 356.616 471.059 356.332 470.234C355.993 469.504 355.509 468.882 354.923 468.421C351.162 465.133 346.117 464.869 341.446 465.207C331.149 465.962 321.056 468.941 311.666 473.996C311.17 474.19 310.734 474.557 310.418 475.05C310.235 475.506 310.153 476.01 310.178 476.515C310.011 479.622 310.353 482.739 311.185 485.694C312.415 489.446 314.946 492.47 316.007 496.296C316.488 498.014 316.649 499.837 317.068 501.565C317.411 503.35 318.304 504.92 319.572 505.97C323.093 508.457 326.418 505.117 328.86 502.524L338.692 492.186Z" fill="#3F3D56"/>
<path d="M292.392 506.778L287.828 494.799C287.159 493.139 286.582 491.428 286.1 489.676C285.578 487.586 285.326 485.42 284.84 483.319C283.238 476.322 279.196 470.495 277.225 463.639C277.1 463.02 276.846 462.45 276.487 461.982C276.199 461.737 275.87 461.572 275.523 461.497C275.176 461.422 274.82 461.44 274.48 461.549C271.725 462.123 269.574 464.647 267.054 466.076C265.884 466.726 264.623 467.159 263.453 467.907C262.868 468.24 262.35 468.721 261.934 469.317C261.518 469.914 261.213 470.611 261.041 471.362C260.762 473.019 261.446 474.611 262.022 476.224C264.47 482.874 265.029 490.304 265.137 497.582C265.218 502.478 265.011 507.731 262.607 511.662C257.99 519.244 260.942 530.377 262.67 539.551C262.877 540.634 263.12 541.804 263.264 542.952C263.417 544.388 263.486 545.836 263.471 547.284C263.471 552.147 263.246 557.161 261.554 561.569C263.225 562.639 265.066 563.267 266.955 563.41C272.181 564.212 277.429 564.775 282.698 565.1C284.348 565.287 286.013 565.185 287.639 564.797C289.571 564.169 291.273 562.784 292.478 560.862C293.682 558.94 294.32 556.59 294.291 554.183C294.579 557.183 295.11 560.443 296.919 562.522C298.729 564.602 301.366 564.916 303.823 565.078C310.758 565.521 317.712 565.286 324.616 564.374C325.056 564.351 325.49 564.229 325.894 564.017C327.226 563.216 327.298 561.006 327.19 559.23C326.992 555.905 326.785 552.58 326.452 549.277C326.17 547.171 326.025 545.041 326.02 542.908C326.157 540.714 326.458 538.539 326.92 536.41C328.126 529.652 329.08 522.753 328.675 515.832C328.515 514.146 328.458 512.448 328.504 510.752C328.738 506.929 330.412 503.29 330.097 499.489C329.197 488.311 328.468 476.842 325.876 466.055C325.408 464.127 324.814 462.058 323.419 460.953C321.618 459.502 319.089 460.26 317.028 459.34C316.061 458.798 315.141 458.141 314.283 457.379C312.417 455.976 310.279 455.184 308.081 455.083C306.425 455.007 304.579 455.452 303.58 457.054C303.118 457.957 302.811 458.963 302.68 460.011C301.375 466.618 299.845 473.149 298.315 479.679L296.847 485.94L292.914 502.749C292.527 504.536 292.788 505.088 292.392 506.778Z" fill="#6C63FF"/>
<path d="M314.111 441.715L401.805 551.016V560.285H362.704L296.805 458.274" fill="#D4780B"/>
<path opacity="0.1" d="M313.279 441.715L400.973 551.016V560.285H361.872L295.973 458.274" fill="#EE860C"/>
<path opacity="0.1" d="M299.869 456.745L300.15 456.864L364.934 551.008H403.473V560.285H364.372L298.473 458.187L299.869 456.745Z" fill="black"/>
<path d="M309.345 459.825C306.289 461.564 302.893 463.792 301.977 467.974C301.796 468.708 301.757 469.489 301.863 470.247C302.087 471.139 302.512 471.922 303.084 472.492C303.656 473.062 304.348 473.393 305.067 473.441C306.505 473.487 307.934 473.146 309.266 472.441L327.294 464.69C327.782 464.485 328.341 464.178 328.463 463.553C328.495 463.16 328.434 462.764 328.289 462.416C327.73 460.643 327.18 457.018 326.01 455.779C325.05 454.779 323.147 455.131 321.986 455.154C317.516 455.199 313.317 457.552 309.345 459.825Z" fill="#6C63FF"/>
<path d="M325.837 465.108C329.018 465.098 332.181 465.651 335.21 466.747C338.252 467.86 340.947 469.935 342.973 472.725C343.563 473.504 343.983 474.429 344.199 475.425C344.382 476.456 347.363 477.074 346.704 477.775C348.707 477.414 348.231 478.476 350.261 478.455C352.291 478.434 354.486 477.847 355.702 476.023C356.547 474.524 356.923 472.75 356.772 470.983C356.799 469.759 356.593 468.543 356.168 467.417C355.254 465.252 353.151 464.088 351.212 463.088L334.881 454.667C333.933 454.099 332.916 453.693 331.863 453.462C330.977 453.367 330.084 453.391 329.202 453.534L321.805 454.492C323.422 455.672 324.74 457.307 325.626 459.235C326.513 461.164 326.939 463.319 326.861 465.489" fill="#3F3D56"/>
<path opacity="0.1" d="M1066.67 498.78C1066.68 519.821 1064.53 540.785 1060.26 561.209C1058.83 568.091 1057.16 574.83 1055.26 581.426C1052.93 589.568 1050.23 597.554 1047.18 605.352C1045.64 609.296 1044.01 613.162 1042.3 616.95C1042.32 638.526 1038.57 659.875 1031.28 679.647C1018.09 715.122 994.566 743.806 965.003 760.471C946.519 770.909 926.318 776.399 905.839 776.549H202.504C171.211 776.628 140.459 766.898 113.374 748.347L112.957 748.068C109.099 745.396 105.338 742.566 101.673 739.579C93.4276 732.836 85.681 725.277 78.5166 716.982C68.8197 705.766 60.275 693.234 53.0598 679.647C36.1139 647.798 27.1369 610.918 27.1684 573.279C10.007 537.638 0 494.943 0 449.064C0 391.18 15.9026 338.377 42.0295 298.404C47.4764 290.053 53.4429 282.196 59.8791 274.897C66.2296 267.674 73.0553 261.061 80.2916 255.12C86.0812 250.361 92.132 246.064 98.4039 242.257C101.021 240.681 103.647 239.191 106.319 237.808C108.664 236.575 111.037 235.428 113.437 234.346C116.317 233.052 119.233 231.862 122.185 230.776C125.138 229.69 128.051 228.74 130.924 227.925C135.151 226.703 139.449 225.71 143.82 224.945C147.443 224.312 151.065 223.873 154.688 223.541C157.568 223.283 160.475 223.144 163.4 223.101H164.984C168.208 223.101 171.414 223.251 174.593 223.509C174.928 222.715 175.29 221.911 175.625 221.129C176.893 218.267 178.206 215.415 179.529 212.628C179.526 212.604 179.526 212.578 179.529 212.553C179.755 212.06 179.981 211.578 180.217 211.106C181.285 208.823 182.399 206.561 183.54 204.321C184.066 203.249 184.582 202.241 185.116 201.234C185.229 200.983 185.353 200.74 185.488 200.505C186.031 199.433 186.583 198.361 187.145 197.289C189.94 192.001 192.847 186.806 195.866 181.703L196.636 180.396C197.107 179.602 197.541 178.831 198.066 178.037C199.316 175.968 200.602 173.889 201.897 171.852C202.803 170.394 203.708 168.947 204.687 167.565C207.041 163.991 209.456 160.418 211.931 156.845C214.407 153.272 216.979 149.745 219.647 146.265C220.009 145.783 220.372 145.311 220.752 144.84L224.619 139.844C224.809 139.609 224.972 139.394 225.153 139.18C225.615 138.59 226.059 138.001 226.557 137.433C228.631 134.828 230.759 132.277 232.896 129.736C243.773 116.913 255.361 104.963 267.581 93.9658C268.061 93.5156 268.55 93.0868 269.03 92.6581C271.331 90.6107 273.667 88.5847 276.004 86.5909C288.855 75.6781 302.289 65.76 316.222 56.8985C317.182 56.2446 318.16 55.6336 319.147 55.0333C331.638 47.2116 344.484 40.2119 357.626 34.0664C364.79 30.7112 372.116 27.5598 379.488 24.6763C384.396 22.7682 389.323 20.9567 394.313 19.2523C402.113 16.5939 409.968 14.2107 417.877 12.1025C441.177 5.91411 464.882 2.09131 488.732 0.67575C495.977 0.239832 503.303 0.0147292 510.711 0.000436816C546.456 -0.0555757 582.061 5.27547 616.668 15.865C617.026 16.505 617.515 17.0268 618.09 17.3812C618.665 17.7357 619.307 17.9111 619.955 17.8909H622.998C624.32 18.3197 625.633 18.7485 626.956 19.1987C634.339 21.7142 641.617 24.4619 648.79 27.4418L650.601 28.2136C668.304 35.6646 685.528 44.6207 702.139 55.0119C717.114 64.3565 731.531 74.9002 745.292 86.5695C747.411 88.3704 749.5 90.1855 751.559 92.0149C754.058 90.1212 756.6 88.306 759.184 86.5695C769.163 79.8425 779.762 74.4942 790.772 70.6299C813.79 62.567 838.146 61.4395 861.627 67.3498C891.738 74.9069 918.997 93.6657 941.013 120.346C949.977 131.262 957.956 143.254 964.821 156.127C965.32 157.049 965.818 157.981 966.298 158.925C972.198 170.318 977.27 182.285 981.457 194.695C981.611 195.156 981.766 195.585 981.901 196.035C985.768 207.656 988.886 219.606 991.229 231.784C991.338 232.406 991.465 233.017 991.573 233.638C993.765 245.423 995.254 257.376 996.029 269.409C996.029 269.837 996.029 270.277 996.101 270.727C996.482 276.951 996.675 283.24 996.681 289.593C996.681 295.274 996.518 300.913 996.219 306.508C996.219 307.119 996.147 307.752 996.101 308.384C996.02 310.003 995.902 311.6 995.784 313.229C1002.7 319.833 1009.17 327.061 1015.15 334.85C1017.78 338.259 1020.34 341.796 1022.81 345.462C1030.33 356.62 1036.94 368.597 1042.55 381.232C1057.86 415.448 1066.67 455.699 1066.67 498.78Z" fill="#EC4E4F"/>
</svg>
