<svg width="41" height="31" viewBox="0 0 41 31" fill="none" xmlns="http://www.w3.org/2000/svg">
<path fill-rule="evenodd" clip-rule="evenodd" d="M0 0L25.381 31C34.0071 31 41 24.0604 41 15.5C41 6.93959 34.0071 0 25.381 0H0ZM27.1337 26.9957C32.7719 26.1563 37.0952 21.3292 37.0952 15.5C37.0952 9.07969 31.8506 3.875 25.381 3.875H18.9543C21.7367 6.96002 23.4286 11.0339 23.4286 15.5C23.4286 17.5197 23.0818 19.4613 22.444 21.2678L27.1337 26.9957ZM19.3738 17.5179C19.4726 16.8599 19.5238 16.1861 19.5238 15.5C19.5238 10.5665 16.8694 6.24824 12.9005 3.875H8.20379L19.3738 17.5179Z" fill="#9BFFDB"/>
</svg>
